<svg id="my-svg" width="100%" xmlns="http://www.w3.org/2000/svg" xmlns:xlink="http://www.w3.org/1999/xlink" class="flowchart" style="max-width: 357.058px; background-color: white;" viewBox="0 0 357.05810546875 542.96875" role="graphics-document document" aria-roledescription="flowchart-v2"><style>#my-svg{font-family:"trebuchet ms",verdana,arial,sans-serif;font-size:16px;fill:#333;}@keyframes edge-animation-frame{from{stroke-dashoffset:0;}}@keyframes dash{to{stroke-dashoffset:0;}}#my-svg .edge-animation-slow{stroke-dasharray:9,5!important;stroke-dashoffset:900;animation:dash 50s linear infinite;stroke-linecap:round;}#my-svg .edge-animation-fast{stroke-dasharray:9,5!important;stroke-dashoffset:900;animation:dash 20s linear infinite;stroke-linecap:round;}#my-svg .error-icon{fill:#552222;}#my-svg .error-text{fill:#552222;stroke:#552222;}#my-svg .edge-thickness-normal{stroke-width:1px;}#my-svg .edge-thickness-thick{stroke-width:3.5px;}#my-svg .edge-pattern-solid{stroke-dasharray:0;}#my-svg .edge-thickness-invisible{stroke-width:0;fill:none;}#my-svg .edge-pattern-dashed{stroke-dasharray:3;}#my-svg .edge-pattern-dotted{stroke-dasharray:2;}#my-svg .marker{fill:#333333;stroke:#333333;}#my-svg .marker.cross{stroke:#333333;}#my-svg svg{font-family:"trebuchet ms",verdana,arial,sans-serif;font-size:16px;}#my-svg p{margin:0;}#my-svg .label{font-family:"trebuchet ms",verdana,arial,sans-serif;color:#333;}#my-svg .cluster-label text{fill:#333;}#my-svg .cluster-label span{color:#333;}#my-svg .cluster-label span p{background-color:transparent;}#my-svg .label text,#my-svg span{fill:#333;color:#333;}#my-svg .node rect,#my-svg .node circle,#my-svg .node ellipse,#my-svg .node polygon,#my-svg .node path{fill:#ECECFF;stroke:#9370DB;stroke-width:1px;}#my-svg .rough-node .label text,#my-svg .node .label text,#my-svg .image-shape .label,#my-svg .icon-shape .label{text-anchor:middle;}#my-svg .node .katex path{fill:#000;stroke:#000;stroke-width:1px;}#my-svg .rough-node .label,#my-svg .node .label,#my-svg .image-shape .label,#my-svg .icon-shape .label{text-align:center;}#my-svg .node.clickable{cursor:pointer;}#my-svg .root .anchor path{fill:#333333!important;stroke-width:0;stroke:#333333;}#my-svg .arrowheadPath{fill:#333333;}#my-svg .edgePaths .path{stroke:#333333;stroke-width:1px;}#my-svg .flowchart-link{stroke:#333333;fill:none;}#my-svg .edgeLabel{background-color:rgba(232,232,232, 0.8);text-align:center;}#my-svg .edgeLabel p{background-color:rgba(232,232,232, 0.8);}#my-svg .edgeLabel rect{opacity:0.5;background-color:rgba(232,232,232, 0.8);fill:rgba(232,232,232, 0.8);}#my-svg .labelBkg{background-color:rgba(232, 232, 232, 0.5);}#my-svg .cluster rect{fill:#ffffde;stroke:#aaaa33;stroke-width:1px;}#my-svg .cluster text{fill:#333;}#my-svg .cluster span{color:#333;}#my-svg .node .collapsed-indicator{fill:#aaaa33;stroke:none;opacity:0.6;}#my-svg .node .collapsed-separator{stroke:#aaaa33;stroke-width:0.75px;}#my-svg div.mermaidTooltip{position:absolute;text-align:center;max-width:200px;padding:2px;font-family:"trebuchet ms",verdana,arial,sans-serif;font-size:12px;background:hsl(80, 100%, 96.2745098039%);border:1px solid #aaaa33;border-radius:2px;pointer-events:none;z-index:100;}#my-svg .flowchartTitleText{text-anchor:middle;font-size:18px;fill:#333;}#my-svg rect.text{fill:none;stroke-width:0;}#my-svg .icon-shape,#my-svg .image-shape{background-color:rgba(232,232,232, 0.8);text-align:center;}#my-svg .icon-shape p,#my-svg .image-shape p{background-color:rgba(232,232,232, 0.8);padding:2px;}#my-svg .icon-shape .label rect,#my-svg .image-shape .label rect{opacity:0.5;background-color:rgba(232,232,232, 0.8);fill:rgba(232,232,232, 0.8);}#my-svg .label-icon{display:inline-block;height:1em;overflow:visible;vertical-align:-0.125em;}#my-svg .node .label-icon path{fill:currentColor;stroke:revert;stroke-width:revert;}#my-svg .node .neo-node{stroke:#9370DB;}#my-svg [data-look="neo"].node rect,#my-svg [data-look="neo"].cluster rect,#my-svg [data-look="neo"].node polygon{stroke:#9370DB;filter:drop-shadow(1px 2px 2px rgba(185, 185, 185, 1));}#my-svg [data-look="neo"].swimlane.cluster rect{filter:none;}#my-svg [data-look="neo"].node path{stroke:#9370DB;stroke-width:1px;}#my-svg [data-look="neo"].node .outer-path{filter:drop-shadow(1px 2px 2px rgba(185, 185, 185, 1));}#my-svg [data-look="neo"].node .neo-line path{stroke:#9370DB;filter:none;}#my-svg [data-look="neo"].node circle{stroke:#9370DB;filter:drop-shadow(1px 2px 2px rgba(185, 185, 185, 1));}#my-svg [data-look="neo"].node circle .state-start{fill:#000000;}#my-svg [data-look="neo"].icon-shape .icon{fill:#9370DB;filter:drop-shadow(1px 2px 2px rgba(185, 185, 185, 1));}#my-svg [data-look="neo"].icon-shape .icon-neo path{stroke:#9370DB;filter:drop-shadow(1px 2px 2px rgba(185, 185, 185, 1));}#my-svg :root{--mermaid-font-family:"trebuchet ms",verdana,arial,sans-serif;}</style><g><marker id="my-svg_flowchart-v2-pointEnd" class="marker flowchart-v2" viewBox="0 0 10 10" refX="5" refY="5" markerUnits="userSpaceOnUse" markerWidth="8" markerHeight="8" orient="auto"><path d="M 0 0 L 10 5 L 0 10 z" class="arrowMarkerPath" style="stroke-width: 1; stroke-dasharray: 1, 0;"/></marker><marker id="my-svg_flowchart-v2-pointStart" class="marker flowchart-v2" viewBox="0 0 10 10" refX="4.5" refY="5" markerUnits="userSpaceOnUse" markerWidth="8" markerHeight="8" orient="auto"><path d="M 0 5 L 10 10 L 10 0 z" class="arrowMarkerPath" style="stroke-width: 1; stroke-dasharray: 1, 0;"/></marker><marker id="my-svg_flowchart-v2-pointEnd-margin" class="marker flowchart-v2" viewBox="0 0 11.5 14" refX="11.5" refY="7" markerUnits="userSpaceOnUse" markerWidth="10.5" markerHeight="14" orient="auto"><path d="M 0 0 L 11.5 7 L 0 14 z" class="arrowMarkerPath" style="stroke-width: 0; stroke-dasharray: 1, 0;"/></marker><marker id="my-svg_flowchart-v2-pointStart-margin" class="marker flowchart-v2" viewBox="0 0 11.5 14" refX="1" refY="7" markerUnits="userSpaceOnUse" markerWidth="11.5" markerHeight="14" orient="auto"><polygon points="0,7 11.5,14 11.5,0" class="arrowMarkerPath" style="stroke-width: 0; stroke-dasharray: 1, 0;"/></marker><marker id="my-svg_flowchart-v2-circleEnd" class="marker flowchart-v2" viewBox="0 0 10 10" refX="11" refY="5" markerUnits="userSpaceOnUse" markerWidth="11" markerHeight="11" orient="auto"><circle cx="5" cy="5" r="5" class="arrowMarkerPath" style="stroke-width: 1; stroke-dasharray: 1, 0;"/></marker><marker id="my-svg_flowchart-v2-circleStart" class="marker flowchart-v2" viewBox="0 0 10 10" refX="-1" refY="5" markerUnits="userSpaceOnUse" markerWidth="11" markerHeight="11" orient="auto"><circle cx="5" cy="5" r="5" class="arrowMarkerPath" style="stroke-width: 1; stroke-dasharray: 1, 0;"/></marker><marker id="my-svg_flowchart-v2-circleEnd-margin" class="marker flowchart-v2" viewBox="0 0 10 10" refY="5" refX="12.25" markerUnits="userSpaceOnUse" markerWidth="14" markerHeight="14" orient="auto"><circle cx="5" cy="5" r="5" class="arrowMarkerPath" style="stroke-width: 0; stroke-dasharray: 1, 0;"/></marker><marker id="my-svg_flowchart-v2-circleStart-margin" class="marker flowchart-v2" viewBox="0 0 10 10" refX="-2" refY="5" markerUnits="userSpaceOnUse" markerWidth="14" markerHeight="14" orient="auto"><circle cx="5" cy="5" r="5" class="arrowMarkerPath" style="stroke-width: 0; stroke-dasharray: 1, 0;"/></marker><marker id="my-svg_flowchart-v2-crossEnd" class="marker cross flowchart-v2" viewBox="0 0 11 11" refX="12" refY="5.2" markerUnits="userSpaceOnUse" markerWidth="11" markerHeight="11" orient="auto"><path d="M 1,1 l 9,9 M 10,1 l -9,9" class="arrowMarkerPath" style="stroke-width: 2; stroke-dasharray: 1, 0;"/></marker><marker id="my-svg_flowchart-v2-crossStart" class="marker cross flowchart-v2" viewBox="0 0 11 11" refX="-1" refY="5.2" markerUnits="userSpaceOnUse" markerWidth="11" markerHeight="11" orient="auto"><path d="M 1,1 l 9,9 M 10,1 l -9,9" class="arrowMarkerPath" style="stroke-width: 2; stroke-dasharray: 1, 0;"/></marker><marker id="my-svg_flowchart-v2-crossEnd-margin" class="marker cross flowchart-v2" viewBox="0 0 15 15" refX="17.7" refY="7.5" markerUnits="userSpaceOnUse" markerWidth="12" markerHeight="12" orient="auto"><path d="M 1,1 L 14,14 M 1,14 L 14,1" class="arrowMarkerPath" style="stroke-width: 2.5;"/></marker><marker id="my-svg_flowchart-v2-crossStart-margin" class="marker cross flowchart-v2" viewBox="0 0 15 15" refX="-3.5" refY="7.5" markerUnits="userSpaceOnUse" markerWidth="12" markerHeight="12" orient="auto"><path d="M 1,1 L 14,14 M 1,14 L 14,1" class="arrowMarkerPath" style="stroke-width: 2.5; stroke-dasharray: 1, 0;"/></marker><g class="root"><g class="clusters"/><g class="edgePaths"><path d="M186.241,62L186.241,66.167C186.241,70.333,186.241,78.667,186.241,86.333C186.241,94,186.241,101,186.241,104.5L186.241,108" id="my-svg-L_n1_n2_0" class="edge-thickness-normal edge-pattern-solid edge-thickness-normal edge-pattern-solid flowchart-link" style=";" data-edge="true" data-et="edge" data-id="L_n1_n2_0" data-points="W3sieCI6MTg2LjI0MTA4NTA1MjQ5MDIzLCJ5Ijo2Mn0seyJ4IjoxODYuMjQxMDg1MDUyNDkwMjMsInkiOjg3fSx7IngiOjE4Ni4yNDEwODUwNTI0OTAyMywieSI6MTEyfV0=" data-look="classic" marker-end="url(#my-svg_flowchart-v2-pointEnd)"/><path d="M186.241,166L186.241,170.167C186.241,174.333,186.241,182.667,186.241,190.333C186.241,198,186.241,205,186.241,208.5L186.241,212" id="my-svg-L_n2_n3_0" class="edge-thickness-normal edge-pattern-solid edge-thickness-normal edge-pattern-solid flowchart-link" style=";" data-edge="true" data-et="edge" data-id="L_n2_n3_0" data-points="W3sieCI6MTg2LjI0MTA4NTA1MjQ5MDIzLCJ5IjoxNjZ9LHsieCI6MTg2LjI0MTA4NTA1MjQ5MDIzLCJ5IjoxOTF9LHsieCI6MTg2LjI0MTA4NTA1MjQ5MDIzLCJ5IjoyMTZ9XQ==" data-look="classic" marker-end="url(#my-svg_flowchart-v2-pointEnd)"/><path d="M140.603,385.33L131.915,397.104C123.227,408.877,105.852,432.423,97.84,447.708C89.827,462.993,91.178,470.017,91.853,473.529L92.529,477.041" id="my-svg-L_n3_n4_0" class="edge-thickness-normal edge-pattern-solid edge-thickness-normal edge-pattern-solid flowchart-link" style=";" data-edge="true" data-et="edge" data-id="L_n3_n4_0" data-points="W3sieCI6MTQwLjYwMjgyNjk5NTk3ODgsInkiOjM4NS4zMzA0OTE5NDM0ODg2fSx7IngiOjg4LjQ3NjU2MjUsInkiOjQ1NS45Njg3NX0seyJ4Ijo5My4yODQyNTQ4MDc2OTIzLCJ5Ijo0ODAuOTY4NzV9XQ==" data-look="classic" marker-end="url(#my-svg_flowchart-v2-pointEnd)"/><path d="M144.047,480.969L151.079,476.802C158.111,472.635,172.176,464.302,179.209,456.635C186.241,448.969,186.241,441.969,186.241,438.469L186.241,434.969" id="my-svg-L_n4_n3_0" class="edge-thickness-normal edge-pattern-solid edge-thickness-normal edge-pattern-solid flowchart-link" style=";" data-edge="true" data-et="edge" data-id="L_n4_n3_0" data-points="W3sieCI6MTQ0LjA0NjYwMzA1NjEwMDcsInkiOjQ4MC45Njg3NX0seyJ4IjoxODYuMjQxMDg1MDUyNDkwMjMsInkiOjQ1NS45Njg3NX0seyJ4IjoxODYuMjQxMDg1MDUyNDkwMjMsInkiOjQzMC45Njg3NTAwMDAwMDAwNn1d" data-look="classic" marker-end="url(#my-svg_flowchart-v2-pointEnd)"/><path d="M234.454,382.756L244.379,394.958C254.304,407.16,274.155,431.565,284.154,448.6C294.152,465.636,294.299,475.302,294.372,480.136L294.445,484.969" id="my-svg-L_n3_n5_0" class="edge-thickness-normal edge-pattern-solid edge-thickness-normal edge-pattern-solid flowchart-link" style=";" data-edge="true" data-et="edge" data-id="L_n3_n5_0" data-points="W3sieCI6MjM0LjQ1MzU5NDk2MDg3NDQzLCJ5IjozODIuNzU2MjQwMDkxNjE1ODR9LHsieCI6Mjk0LjAwNTYwNzYwNDk4MDQ3LCJ5Ijo0NTUuOTY4NzV9LHsieCI6Mjk0LjUwNTYwNzYwNDk4MDQ3LCJ5Ijo0ODguOTY4NzV9XQ==" data-look="classic" marker-end="url(#my-svg_flowchart-v2-pointEnd)"/></g><g class="edgeLabels"><g class="edgeLabel"><g class="label" data-id="L_n1_n2_0" transform="translate(0, 0)"><foreignObject width="0" height="0"><div xmlns="http://www.w3.org/1999/xhtml" class="labelBkg" style="display: table-cell; white-space: nowrap; line-height: 1.5; max-width: 200px; text-align: center;"><span class="edgeLabel"></span></div></foreignObject></g></g><g class="edgeLabel"><g class="label" data-id="L_n2_n3_0" transform="translate(0, 0)"><foreignObject width="0" height="0"><div xmlns="http://www.w3.org/1999/xhtml" class="labelBkg" style="display: table-cell; white-space: nowrap; line-height: 1.5; max-width: 200px; text-align: center;"><span class="edgeLabel"></span></div></foreignObject></g></g><g class="edgeLabel"><g class="label" data-id="L_n3_n4_0" transform="translate(0, 0)"><foreignObject width="0" height="0"><div xmlns="http://www.w3.org/1999/xhtml" class="labelBkg" style="display: table-cell; white-space: nowrap; line-height: 1.5; max-width: 200px; text-align: center;"><span class="edgeLabel"></span></div></foreignObject></g></g><g class="edgeLabel"><g class="label" data-id="L_n4_n3_0" transform="translate(0, 0)"><foreignObject width="0" height="0"><div xmlns="http://www.w3.org/1999/xhtml" class="labelBkg" style="display: table-cell; white-space: nowrap; line-height: 1.5; max-width: 200px; text-align: center;"><span class="edgeLabel"></span></div></foreignObject></g></g><g class="edgeLabel"><g class="label" data-id="L_n3_n5_0" transform="translate(0, 0)"><foreignObject width="0" height="0"><div xmlns="http://www.w3.org/1999/xhtml" class="labelBkg" style="display: table-cell; white-space: nowrap; line-height: 1.5; max-width: 200px; text-align: center;"><span class="edgeLabel"></span></div></foreignObject></g></g></g><g class="nodes"><g class="node default" id="my-svg-flowchart-n1-0" data-look="classic" transform="translate(186.24108505249023, 35)"><rect class="basic label-container" style="" x="-120.703125" y="-27" width="241.40625" height="54"/><g class="label" style="" transform="translate(-90.703125, -12)"><rect/><foreignObject width="181.40625" height="24"><div xmlns="http://www.w3.org/1999/xhtml" style="display: table-cell; white-space: nowrap; line-height: 1.5; max-width: 200px; text-align: center;"><span class="nodeLabel"><p>def sumar_lista(numeros)</p></span></div></foreignObject></g></g><g class="node default" id="my-svg-flowchart-n2-1" data-look="classic" transform="translate(186.24108505249023, 139)"><rect class="basic label-container" style="" x="-63.1328125" y="-27" width="126.265625" height="54"/><g class="label" style="" transform="translate(-33.1328125, -12)"><rect/><foreignObject width="66.265625" height="24"><div xmlns="http://www.w3.org/1999/xhtml" style="display: table-cell; white-space: nowrap; line-height: 1.5; max-width: 200px; text-align: center;"><span class="nodeLabel"><p>suma = 0</p></span></div></foreignObject></g></g><g class="node default" id="my-svg-flowchart-n3-4" data-look="classic" transform="translate(186.24108505249023, 323.484375)"><polygon points="107.484375,0 214.96875,-107.484375 107.484375,-214.96875 0,-107.484375" class="label-container" transform="translate(-106.984375, 107.484375)"/><g class="label" style="" transform="translate(-80.484375, -12)"><rect/><foreignObject width="160.96875" height="24"><div xmlns="http://www.w3.org/1999/xhtml" style="display: table-cell; white-space: nowrap; line-height: 1.5; max-width: 200px; text-align: center;"><span class="nodeLabel"><p>for numero in numeros</p></span></div></foreignObject></g></g><g class="node default" id="my-svg-flowchart-n4-7" data-look="classic" transform="translate(98.4765625, 507.96875)"><rect class="basic label-container" style="" x="-90.4765625" y="-27" width="180.953125" height="54"/><g class="label" style="" transform="translate(-60.4765625, -12)"><rect/><foreignObject width="120.953125" height="24"><div xmlns="http://www.w3.org/1999/xhtml" style="display: table-cell; white-space: nowrap; line-height: 1.5; max-width: 200px; text-align: center;"><span class="nodeLabel"><p>suma += numero</p></span></div></foreignObject></g></g><g class="node default" id="my-svg-flowchart-n5-12" data-look="classic" transform="translate(294.00560760498047, 507.96875)"><g class="basic label-container outer-path"><path d="M-35.5625 -19.5 C-13.716450396390563 -19.5, 8.129599207218874 -19.5, 35.5625 -19.5 C35.5625 -19.5, 35.5625 -19.5, 35.5625 -19.5 C35.85886267891626 -19.490496225722115, 36.15522535783252 -19.48099245144423, 36.8118692896239 -19.45993515863156 C37.26544824995151 -19.416178941837263, 37.71902721027913 -19.37242272504297, 38.056104652847864 -19.3399052695533 C38.49607146502912 -19.26877484735342, 38.93603827721037 -19.197644425153545, 39.29009325967676 -19.140403561325776 C39.75783094516016 -19.03364548688784, 40.22556863064356 -18.9268874124499, 40.50876438623539 -18.862249829261074 C40.78142561826083 -18.781325406823935, 41.05408685028628 -18.700400984386796, 41.707110251460605 -18.50658706670804 C42.08066417083868 -18.369115771282328, 42.45421809021676 -18.23164447585662, 42.8802065951478 -18.074876768247425 C43.32901923602955 -17.87620072568303, 43.77783187691131 -17.677524683118637, 44.02323291279238 -17.568892924097174 C44.26315181338142 -17.44372738733526, 44.50307071397046 -17.31856185057335, 45.13149226407678 -16.990714730406097 C45.4564846735277 -16.79370242192956, 45.78147708297862 -16.596690113453025, 46.2004305736057 -16.342718045390892 C46.448592136027074 -16.16961128218664, 46.69675369844844 -15.996504518982384, 47.22565534457871 -15.627565626425154 C47.459725490754 -15.440900913718544, 47.693795636929295 -15.254236201011933, 48.202953708501866 -14.848196188198123 C48.45988258214139 -14.614860183124188, 48.71681145578092 -14.38152417805025, 49.12830973676799 -14.007812326905688 C49.35735265454085 -13.77130670953194, 49.586395572313705 -13.534801092158194, 49.99792094296865 -13.10986736009568 C50.17030588976318 -12.907374192609474, 50.342690836557715 -12.704881025123269, 50.80821390812658 -12.158051136245305 C51.083949738972954 -11.788590242962126, 51.35968556981932 -11.419129349678947, 51.555858964640635 -11.156274872382312 C51.79530610824933 -10.788419759238376, 52.03475325185802 -10.42056464609444, 52.23778387860425 -10.108655082055241 C52.37078676936557 -9.872494981505398, 52.5037896601269 -9.636334880955554, 52.851186474273504 -9.019496659696287 C52.99410365621479 -8.72272607345738, 53.137020838156076 -8.425955487218474, 53.39354614880834 -7.893275190886684 C53.57956177974878 -7.433812986096243, 53.76557741068921 -6.974350781305802, 53.862634229970325 -6.734618561215508 C54.00421255622796 -6.308207199970433, 54.1457908824856 -5.881795838725359, 54.25652313421488 -5.548287939305138 C54.33397053140688 -5.252947447897797, 54.411417928598866 -4.957606956490456, 54.57359428754556 -4.339158212148133 C54.640782639579236 -3.9941602247184216, 54.70797099161292 -3.6491622372887096, 54.812544776581774 -3.1121979531509023 C54.848826707591186 -2.830802460919556, 54.8851086386006 -2.54940696868821, 54.97239270250937 -1.872449005199798 C54.98898900971873 -1.6139481241159825, 55.005585316928084 -1.3554472430321671, 55.05248121591342 -0.6250057626472757 C55.05248121591342 -0.25439658464229964, 55.05248121591342 0.11621259336267642, 55.05248121591342 0.625005762647271 C55.027981670641765 1.006605955930254, 55.00348212537011 1.388206149213237, 54.97239270250937 1.8724490051997846 C54.92111437531142 2.2701535848960517, 54.86983604811346 2.6678581645923183, 54.812544776581774 3.1121979531508885 C54.7435545368008 3.466448253333841, 54.674564297019835 3.820698553516794, 54.57359428754556 4.339158212148129 C54.47573240064903 4.712348000494674, 54.377870513752505 5.085537788841219, 54.25652313421489 5.548287939305125 C54.174391877346515 5.795654199153973, 54.09226062047814 6.043020459002821, 53.862634229970325 6.734618561215495 C53.74189661144094 7.032842813286131, 53.62115899291155 7.331067065356768, 53.39354614880834 7.893275190886679 C53.19643568461577 8.302579287270861, 52.9993252204232 8.711883383655042, 52.851186474273504 9.019496659696284 C52.63383864001019 9.40541974828557, 52.416490805746875 9.791342836874858, 52.23778387860425 10.108655082055236 C52.059877681962405 10.381966774599968, 51.88197148532056 10.6552784671447, 51.55585896464064 11.156274872382301 C51.30304706435457 11.495019787127712, 51.0502351640685 11.83376470187312, 50.80821390812658 12.158051136245302 C50.644115023411686 12.350811023722482, 50.48001613869678 12.543570911199662, 49.99792094296866 13.10986736009567 C49.69408135247753 13.423606682972068, 49.3902417619864 13.737346005848465, 49.12830973676799 14.007812326905684 C48.76260203489711 14.339938385649264, 48.396894333026225 14.672064444392841, 48.20295370850189 14.848196188198111 C47.86120191403407 15.120734149889005, 47.51945011956625 15.393272111579899, 47.22565534457871 15.627565626425152 C46.92015144804534 15.840671919596303, 46.61464755151197 16.053778212767455, 46.20043057360571 16.34271804539089 C45.9270042719289 16.50847067629867, 45.6535779702521 16.674223307206454, 45.13149226407678 16.990714730406093 C44.75904098662594 17.18502232328577, 44.38658970917509 17.37932991616545, 44.02323291279239 17.56889292409717 C43.65492101511269 17.731933675615714, 43.286609117433 17.894974427134255, 42.880206595147804 18.07487676824742 C42.430440874723146 18.240394710952437, 41.98067515429849 18.405912653657456, 41.70711025146062 18.506587066708033 C41.25433777129195 18.64096756217085, 40.80156529112328 18.775348057633664, 40.50876438623541 18.86224982926107 C40.17891096775141 18.937536719535327, 39.849057549267414 19.01282360980958, 39.290093259676766 19.140403561325773 C38.839821373050114 19.213200028044938, 38.38954948642346 19.285996494764102, 38.05610465284788 19.3399052695533 C37.603024416605805 19.383613375034866, 37.14994418036373 19.42732148051643, 36.8118692896239 19.45993515863156 C36.31262807653218 19.47594485262134, 35.813386863440456 19.49195454661112, 35.56250000000001 19.5 C35.56250000000001 19.5, 35.5625 19.5, 35.5625 19.5 C7.8131387239784615 19.5, -19.936222552043077 19.5, -35.56249999999999 19.5 C-36.0050283064376 19.48580897854164, -36.44755661287521 19.471617957083282, -36.81186928962389 19.45993515863156 C-37.07110380102296 19.434927117092005, -37.33033831242203 19.40991907555245, -38.05610465284787 19.3399052695533 C-38.361826196164934 19.290478581335773, -38.66754773948199 19.24105189311825, -39.29009325967676 19.140403561325773 C-39.72379568944486 19.04141381190405, -40.15749811921296 18.94242406248233, -40.508764386235384 18.862249829261074 C-40.92281101099204 18.739362964408382, -41.3368576357487 18.616476099555694, -41.70711025146059 18.506587066708043 C-42.1668577372696 18.337395742071156, -42.62660522307862 18.168204417434268, -42.8802065951478 18.074876768247425 C-43.28968253216905 17.893613917600216, -43.6991584691903 17.712351066953005, -44.02323291279238 17.568892924097174 C-44.40408648158523 17.3702018612063, -44.784940050378076 17.171510798315424, -45.13149226407678 16.990714730406097 C-45.4723179950251 16.78410416939091, -45.81314372597341 16.577493608375725, -46.200430573605686 16.3427180453909 C-46.576480130760416 16.080402153242723, -46.95252968791514 15.818086261094546, -47.22565534457871 15.627565626425156 C-47.484074683851816 15.421483080182282, -47.74249402312491 15.21540053393941, -48.202953708501866 14.848196188198125 C-48.44546881077359 14.627950388912934, -48.687983913045315 14.407704589627743, -49.128309736767974 14.007812326905697 C-49.40226650784009 13.724929468504538, -49.6762232789122 13.442046610103377, -49.997920942968655 13.109867360095677 C-50.319376293715756 12.732267613780504, -50.64083164446286 12.354667867465329, -50.808213908126575 12.158051136245307 C-51.09760797533157 11.7702894505325, -51.38700204253657 11.382527764819693, -51.555858964640635 11.156274872382316 C-51.70618080552045 10.925340157724724, -51.856502646400266 10.694405443067133, -52.23778387860425 10.108655082055249 C-52.47274257246618 9.691462128955699, -52.707701266328115 9.27426917585615, -52.851186474273504 9.019496659696289 C-53.041193760825266 8.624942463666905, -53.23120104737703 8.23038826763752, -53.39354614880834 7.893275190886686 C-53.53742666236038 7.537887540672659, -53.68130717591242 7.182499890458633, -53.862634229970325 6.73461856121551 C-53.95163640831348 6.466558180617283, -54.040638586656634 6.198497800019055, -54.25652313421488 5.5482879393051325 C-54.332152634203545 5.259879877815712, -54.40778213419221 4.971471816326292, -54.57359428754556 4.339158212148136 C-54.64057618171676 3.9952203422073707, -54.70755807588796 3.6512824722666055, -54.812544776581774 3.112197953150904 C-54.85114829105535 2.812796718019992, -54.88975180552893 2.51339548288908, -54.97239270250937 1.872449005199809 C-54.98870380595053 1.6183904030179503, -55.0050149093917 1.3643318008360916, -55.05248121591342 0.6250057626472781 C-55.05248121591342 0.2036620467427374, -55.05248121591342 -0.21768166916180332, -55.05248121591342 -0.6250057626472687 C-55.02804794059267 -1.0055737479527165, -55.003614665271925 -1.3861417332581643, -54.97239270250937 -1.8724490051997822 C-54.92881097899336 -2.210460246605202, -54.88522925547735 -2.5484714880106214, -54.812544776581774 -3.112197953150895 C-54.7425597797673 -3.4715561204589154, -54.67257478295282 -3.8309142877669355, -54.57359428754556 -4.339158212148126 C-54.47497294197106 -4.715244145585245, -54.37635159639656 -5.091330079022366, -54.25652313421489 -5.548287939305123 C-54.12748058037494 -5.936943551332205, -53.998438026535 -6.325599163359287, -53.86263422997033 -6.734618561215485 C-53.73841238393962 -7.0414489225773655, -53.6141905379089 -7.348279283939245, -53.39354614880834 -7.893275190886676 C-53.25690845386793 -8.17700628800876, -53.120270758927525 -8.460737385130845, -52.851186474273504 -9.019496659696282 C-52.6949638627446 -9.296885725720655, -52.53874125121569 -9.574274791745028, -52.23778387860425 -10.108655082055243 C-52.0920497423666 -10.33254185041128, -51.946315606128955 -10.556428618767319, -51.55585896464064 -11.156274872382308 C-51.2910340319388 -11.511116156155092, -51.02620909923696 -11.865957439927875, -50.80821390812659 -12.158051136245302 C-50.610540512937355 -12.390249554169397, -50.41286711774813 -12.622447972093493, -49.99792094296866 -13.10986736009567 C-49.74561207424217 -13.370396981999143, -49.49330320551567 -13.630926603902616, -49.128309736767996 -14.007812326905677 C-48.90729930725682 -14.208528151372203, -48.68628887774564 -14.40924397583873, -48.20295370850189 -14.848196188198107 C-47.81647738581117 -15.156400770977084, -47.43000106312045 -15.464605353756061, -47.22565534457872 -15.627565626425149 C-46.83605565604106 -15.899333503650325, -46.44645596750341 -16.171101380875502, -46.200430573605715 -16.342718045390885 C-45.91812712466876 -16.513852055135683, -45.63582367573179 -16.68498606488048, -45.13149226407679 -16.99071473040609 C-44.706490133849634 -17.21243806951874, -44.28148800362248 -17.434161408631393, -44.02323291279239 -17.56889292409717 C-43.69966697395808 -17.71212596697657, -43.376101035123774 -17.855359009855967, -42.880206595147804 -18.07487676824742 C-42.643931008444675 -18.16182836826175, -42.40765542174155 -18.248779968276086, -41.70711025146062 -18.506587066708033 C-41.34496856966429 -18.614068816944705, -40.98282688786795 -18.721550567181378, -40.50876438623541 -18.862249829261067 C-40.150464322812645 -18.94402948061089, -39.79216425938988 -19.025809131960717, -39.290093259676766 -19.140403561325773 C-38.928174231532566 -19.198915823072145, -38.56625520338837 -19.257428084818518, -38.05610465284788 -19.3399052695533 C-37.57428288070553 -19.38638603643641, -37.09246110856318 -19.43286680331952, -36.8118692896239 -19.45993515863156 C-36.45096293587986 -19.47150872293453, -36.090056582135816 -19.483082287237497, -35.56250000000001 -19.5 C-35.56250000000001 -19.5, -35.5625 -19.5, -35.5625 -19.5" stroke="none" stroke-width="0" fill="#ECECFF" style=""/><path d="M-35.5625 -19.5 C-7.273713786525811 -19.5, 21.01507242694838 -19.5, 35.5625 -19.5 M-35.5625 -19.5 C-12.925598026436788 -19.5, 9.711303947126424 -19.5, 35.5625 -19.5 M35.5625 -19.5 C35.5625 -19.5, 35.5625 -19.5, 35.5625 -19.5 M35.5625 -19.5 C35.5625 -19.5, 35.5625 -19.5, 35.5625 -19.5 M35.5625 -19.5 C36.02904520041207 -19.48503880349793, 36.495590400824135 -19.470077606995858, 36.8118692896239 -19.45993515863156 M35.5625 -19.5 C36.00025032420588 -19.485962199132036, 36.43800064841176 -19.47192439826407, 36.8118692896239 -19.45993515863156 M36.8118692896239 -19.45993515863156 C37.074225935814084 -19.43462592850362, 37.33658258200427 -19.409316698375687, 38.056104652847864 -19.3399052695533 M36.8118692896239 -19.45993515863156 C37.20083374593602 -19.422412225329328, 37.58979820224815 -19.384889292027097, 38.056104652847864 -19.3399052695533 M38.056104652847864 -19.3399052695533 C38.46412488431577 -19.273939722773722, 38.87214511578368 -19.207974175994146, 39.29009325967676 -19.140403561325776 M38.056104652847864 -19.3399052695533 C38.40190335196543 -19.283999217588935, 38.747702051082996 -19.22809316562457, 39.29009325967676 -19.140403561325776 M39.29009325967676 -19.140403561325776 C39.602163738942046 -19.069175510883667, 39.91423421820733 -18.99794746044156, 40.50876438623539 -18.862249829261074 M39.29009325967676 -19.140403561325776 C39.61378735691121 -19.066522495933402, 39.93748145414566 -18.992641430541028, 40.50876438623539 -18.862249829261074 M40.50876438623539 -18.862249829261074 C40.91309253350896 -18.742247357512035, 41.31742068078253 -18.622244885762996, 41.707110251460605 -18.50658706670804 M40.50876438623539 -18.862249829261074 C40.86346807295965 -18.75697563691896, 41.21817175968391 -18.651701444576847, 41.707110251460605 -18.50658706670804 M41.707110251460605 -18.50658706670804 C42.12794615713522 -18.351715563255315, 42.54878206280983 -18.19684405980259, 42.8802065951478 -18.074876768247425 M41.707110251460605 -18.50658706670804 C42.07416553578986 -18.37150732905302, 42.44122082011912 -18.236427591397998, 42.8802065951478 -18.074876768247425 M42.8802065951478 -18.074876768247425 C43.30285335262362 -17.887783586083483, 43.725500110099446 -17.700690403919545, 44.02323291279238 -17.568892924097174 M42.8802065951478 -18.074876768247425 C43.31104467041948 -17.884157532682067, 43.74188274569116 -17.69343829711671, 44.02323291279238 -17.568892924097174 M44.02323291279238 -17.568892924097174 C44.31198385488698 -17.418251742560226, 44.600734796981584 -17.26761056102328, 45.13149226407678 -16.990714730406097 M44.02323291279238 -17.568892924097174 C44.332034054654905 -17.407791566184066, 44.640835196517436 -17.24669020827096, 45.13149226407678 -16.990714730406097 M45.13149226407678 -16.990714730406097 C45.37607939763226 -16.842444572691225, 45.62066653118774 -16.694174414976352, 46.2004305736057 -16.342718045390892 M45.13149226407678 -16.990714730406097 C45.390705963935964 -16.833577862242674, 45.649919663795146 -16.676440994079254, 46.2004305736057 -16.342718045390892 M46.2004305736057 -16.342718045390892 C46.43505511883721 -16.179054119370257, 46.669679664068724 -16.015390193349617, 47.22565534457871 -15.627565626425154 M46.2004305736057 -16.342718045390892 C46.566213876677665 -16.087563447671876, 46.93199717974962 -15.832408849952857, 47.22565534457871 -15.627565626425154 M47.22565534457871 -15.627565626425154 C47.46587378064811 -15.43599781614086, 47.7060922167175 -15.244430005856568, 48.202953708501866 -14.848196188198123 M47.22565534457871 -15.627565626425154 C47.42275478475892 -15.470384067917813, 47.61985422493914 -15.313202509410473, 48.202953708501866 -14.848196188198123 M48.202953708501866 -14.848196188198123 C48.40501161893707 -14.664692540100225, 48.60706952937227 -14.481188892002324, 49.12830973676799 -14.007812326905688 M48.202953708501866 -14.848196188198123 C48.50174284141842 -14.576843803210561, 48.80053197433497 -14.305491418222998, 49.12830973676799 -14.007812326905688 M49.12830973676799 -14.007812326905688 C49.39740676288709 -13.729947554160995, 49.666503789006185 -13.452082781416303, 49.99792094296865 -13.10986736009568 M49.12830973676799 -14.007812326905688 C49.40794155530697 -13.719069516064922, 49.68757337384595 -13.430326705224157, 49.99792094296865 -13.10986736009568 M49.99792094296865 -13.10986736009568 C50.190862305920234 -12.883227456498181, 50.38380366887183 -12.656587552900683, 50.80821390812658 -12.158051136245305 M49.99792094296865 -13.10986736009568 C50.30502342631331 -12.749127308532701, 50.612125909657976 -12.388387256969724, 50.80821390812658 -12.158051136245305 M50.80821390812658 -12.158051136245305 C51.02119162967405 -11.87268039204128, 51.23416935122152 -11.587309647837255, 51.555858964640635 -11.156274872382312 M50.80821390812658 -12.158051136245305 C51.08040006242974 -11.793346486147847, 51.352586216732895 -11.42864183605039, 51.555858964640635 -11.156274872382312 M51.555858964640635 -11.156274872382312 C51.742236352648064 -10.869949155066656, 51.92861374065549 -10.583623437751001, 52.23778387860425 -10.108655082055241 M51.555858964640635 -11.156274872382312 C51.72689967078337 -10.893510416886551, 51.897940376926094 -10.63074596139079, 52.23778387860425 -10.108655082055241 M52.23778387860425 -10.108655082055241 C52.3836104225573 -9.849725286727805, 52.52943696651034 -9.59079549140037, 52.851186474273504 -9.019496659696287 M52.23778387860425 -10.108655082055241 C52.4240357400511 -9.777946042010269, 52.61028760149796 -9.447237001965297, 52.851186474273504 -9.019496659696287 M52.851186474273504 -9.019496659696287 C52.98097363764307 -8.749990837958952, 53.11076080101264 -8.480485016221616, 53.39354614880834 -7.893275190886684 M52.851186474273504 -9.019496659696287 C52.98504728646945 -8.741531819008854, 53.11890809866539 -8.463566978321422, 53.39354614880834 -7.893275190886684 M53.39354614880834 -7.893275190886684 C53.52564779231295 -7.566981577418756, 53.65774943581757 -7.240687963950828, 53.862634229970325 -6.734618561215508 M53.39354614880834 -7.893275190886684 C53.53627707692126 -7.540727038933012, 53.67900800503418 -7.188178886979339, 53.862634229970325 -6.734618561215508 M53.862634229970325 -6.734618561215508 C53.9491872170075 -6.473934754605261, 54.03574020404467 -6.2132509479950135, 54.25652313421488 -5.548287939305138 M53.862634229970325 -6.734618561215508 C54.017431652230876 -6.268393388986585, 54.172229074491426 -5.802168216757662, 54.25652313421488 -5.548287939305138 M54.25652313421488 -5.548287939305138 C54.378223360963666 -5.0841922295000845, 54.49992358771246 -4.620096519695031, 54.57359428754556 -4.339158212148133 M54.25652313421488 -5.548287939305138 C54.37630185560563 -5.091519762215973, 54.496080576996384 -4.634751585126807, 54.57359428754556 -4.339158212148133 M54.57359428754556 -4.339158212148133 C54.65672866226244 -3.9122807684332637, 54.73986303697932 -3.4854033247183946, 54.812544776581774 -3.1121979531509023 M54.57359428754556 -4.339158212148133 C54.6525441185541 -3.9337675159719816, 54.73149394956263 -3.52837681979583, 54.812544776581774 -3.1121979531509023 M54.812544776581774 -3.1121979531509023 C54.856420904996575 -2.7719033654872676, 54.90029703341138 -2.4316087778236324, 54.97239270250937 -1.872449005199798 M54.812544776581774 -3.1121979531509023 C54.873868123936475 -2.6365861807324715, 54.935191471291176 -2.1609744083140408, 54.97239270250937 -1.872449005199798 M54.97239270250937 -1.872449005199798 C54.9896002085727 -1.6044282086143982, 55.00680771463605 -1.3364074120289984, 55.05248121591342 -0.6250057626472757 M54.97239270250937 -1.872449005199798 C54.996454820878405 -1.4976620890096881, 55.02051693924744 -1.122875172819578, 55.05248121591342 -0.6250057626472757 M55.05248121591342 -0.6250057626472757 C55.05248121591342 -0.3720749922024595, 55.05248121591342 -0.11914422175764328, 55.05248121591342 0.625005762647271 M55.05248121591342 -0.6250057626472757 C55.05248121591342 -0.18759878071877967, 55.05248121591342 0.24980820120971636, 55.05248121591342 0.625005762647271 M55.05248121591342 0.625005762647271 C55.02586868686357 1.0395173838455292, 54.99925615781371 1.454029005043787, 54.97239270250937 1.8724490051997846 M55.05248121591342 0.625005762647271 C55.03603277355756 0.8812035292834843, 55.0195843312017 1.1374012959196977, 54.97239270250937 1.8724490051997846 M54.97239270250937 1.8724490051997846 C54.93734334564143 2.144284895789149, 54.902293988773486 2.4161207863785137, 54.812544776581774 3.1121979531508885 M54.97239270250937 1.8724490051997846 C54.926667647441846 2.2270835028700224, 54.88094259237433 2.58171800054026, 54.812544776581774 3.1121979531508885 M54.812544776581774 3.1121979531508885 C54.74508803500903 3.4585740641395244, 54.6776312934363 3.80495017512816, 54.57359428754556 4.339158212148129 M54.812544776581774 3.1121979531508885 C54.743076582571476 3.4689024472857577, 54.673608388561185 3.8256069414206273, 54.57359428754556 4.339158212148129 M54.57359428754556 4.339158212148129 C54.501534513095756 4.613953363029053, 54.42947473864594 4.888748513909976, 54.25652313421489 5.548287939305125 M54.57359428754556 4.339158212148129 C54.49900241290669 4.623609358469109, 54.42441053826782 4.908060504790089, 54.25652313421489 5.548287939305125 M54.25652313421489 5.548287939305125 C54.17383459053289 5.797332658244999, 54.0911460468509 6.0463773771848714, 53.862634229970325 6.734618561215495 M54.25652313421489 5.548287939305125 C54.15713528306668 5.8476283116599275, 54.057747431918465 6.1469686840147295, 53.862634229970325 6.734618561215495 M53.862634229970325 6.734618561215495 C53.72183713760762 7.082390101477964, 53.581040045244926 7.430161641740432, 53.39354614880834 7.893275190886679 M53.862634229970325 6.734618561215495 C53.71915036854946 7.089026472996785, 53.57566650712859 7.443434384778075, 53.39354614880834 7.893275190886679 M53.39354614880834 7.893275190886679 C53.27839675579093 8.132385369289649, 53.16324736277352 8.371495547692618, 52.851186474273504 9.019496659696284 M53.39354614880834 7.893275190886679 C53.275213899102226 8.138994639305968, 53.15688164939611 8.384714087725257, 52.851186474273504 9.019496659696284 M52.851186474273504 9.019496659696284 C52.65248646956609 9.372308638611562, 52.45378646485869 9.72512061752684, 52.23778387860425 10.108655082055236 M52.851186474273504 9.019496659696284 C52.699809362729724 9.288282049836985, 52.54843225118594 9.557067439977684, 52.23778387860425 10.108655082055236 M52.23778387860425 10.108655082055236 C52.01432410033544 10.451949308828404, 51.790864322066646 10.79524353560157, 51.55585896464064 11.156274872382301 M52.23778387860425 10.108655082055236 C52.09477724982297 10.328351666519987, 51.95177062104169 10.54804825098474, 51.55585896464064 11.156274872382301 M51.55585896464064 11.156274872382301 C51.268491916755394 11.5413205368719, 50.981124868870154 11.9263662013615, 50.80821390812658 12.158051136245302 M51.55585896464064 11.156274872382301 C51.32673162029489 11.46328463987512, 51.09760427594914 11.77029440736794, 50.80821390812658 12.158051136245302 M50.80821390812658 12.158051136245302 C50.59247314801669 12.411472509067403, 50.376732387906785 12.664893881889506, 49.99792094296866 13.10986736009567 M50.80821390812658 12.158051136245302 C50.53971387051996 12.473446558502987, 50.27121383291335 12.788841980760672, 49.99792094296866 13.10986736009567 M49.99792094296866 13.10986736009567 C49.70556966182493 13.411744060363139, 49.4132183806812 13.713620760630606, 49.12830973676799 14.007812326905684 M49.99792094296866 13.10986736009567 C49.777684678850044 13.3372793845317, 49.557448414731425 13.564691408967729, 49.12830973676799 14.007812326905684 M49.12830973676799 14.007812326905684 C48.82099458835035 14.286907813585328, 48.51367943993271 14.566003300264972, 48.20295370850189 14.848196188198111 M49.12830973676799 14.007812326905684 C48.91273194222133 14.203594376037078, 48.697154147674674 14.399376425168473, 48.20295370850189 14.848196188198111 M48.20295370850189 14.848196188198111 C48.00333721059066 15.007385033264216, 47.80372071267943 15.166573878330318, 47.22565534457871 15.627565626425152 M48.20295370850189 14.848196188198111 C47.876982771696376 15.108149335849575, 47.551011834890865 15.368102483501039, 47.22565534457871 15.627565626425152 M47.22565534457871 15.627565626425152 C46.93802188864784 15.828206273830903, 46.65038843271697 16.028846921236653, 46.20043057360571 16.34271804539089 M47.22565534457871 15.627565626425152 C46.93812391238967 15.828135106485139, 46.65059248020063 16.028704586545125, 46.20043057360571 16.34271804539089 M46.20043057360571 16.34271804539089 C45.83505478275442 16.564210996991417, 45.46967899190314 16.785703948591948, 45.13149226407678 16.990714730406093 M46.20043057360571 16.34271804539089 C45.906165755383725 16.521103107489072, 45.61190093716175 16.69948816958726, 45.13149226407678 16.990714730406093 M45.13149226407678 16.990714730406093 C44.77481746870195 17.176791742692036, 44.41814267332712 17.362868754977974, 44.02323291279239 17.56889292409717 M45.13149226407678 16.990714730406093 C44.75134336566015 17.189038167213063, 44.371194467243505 17.387361604020033, 44.02323291279239 17.56889292409717 M44.02323291279239 17.56889292409717 C43.71407763325768 17.705746795581657, 43.404922353722974 17.84260066706614, 42.880206595147804 18.07487676824742 M44.02323291279239 17.56889292409717 C43.57188412529837 17.768691643534698, 43.12053533780434 17.968490362972226, 42.880206595147804 18.07487676824742 M42.880206595147804 18.07487676824742 C42.56085229951512 18.192402101118997, 42.241498003882434 18.309927433990573, 41.70711025146062 18.506587066708033 M42.880206595147804 18.07487676824742 C42.44094581587686 18.23652879550126, 42.00168503660592 18.398180822755098, 41.70711025146062 18.506587066708033 M41.70711025146062 18.506587066708033 C41.25295687684135 18.641377404395325, 40.79880350222208 18.776167742082613, 40.50876438623541 18.86224982926107 M41.70711025146062 18.506587066708033 C41.42270024226628 18.590998464538313, 41.138290233071935 18.67540986236859, 40.50876438623541 18.86224982926107 M40.50876438623541 18.86224982926107 C40.12375726169048 18.950125193032168, 39.73875013714555 19.03800055680326, 39.290093259676766 19.140403561325773 M40.50876438623541 18.86224982926107 C40.07095276652818 18.962177474471428, 39.63314114682095 19.062105119681785, 39.290093259676766 19.140403561325773 M39.290093259676766 19.140403561325773 C38.822292177955134 19.216034012366958, 38.354491096233495 19.29166446340814, 38.05610465284788 19.3399052695533 M39.290093259676766 19.140403561325773 C39.03328162341632 19.181922875072377, 38.77646998715587 19.223442188818982, 38.05610465284788 19.3399052695533 M38.05610465284788 19.3399052695533 C37.749935847295546 19.369441006003072, 37.44376704174321 19.398976742452845, 36.8118692896239 19.45993515863156 M38.05610465284788 19.3399052695533 C37.761454002855416 19.36832986338882, 37.46680335286296 19.39675445722434, 36.8118692896239 19.45993515863156 M36.8118692896239 19.45993515863156 C36.40684188098066 19.472923599288723, 36.001814472337415 19.485912039945887, 35.56250000000001 19.5 M36.8118692896239 19.45993515863156 C36.47868068589319 19.470619868640927, 36.14549208216247 19.4813045786503, 35.56250000000001 19.5 M35.56250000000001 19.5 C35.56250000000001 19.5, 35.5625 19.5, 35.5625 19.5 M35.56250000000001 19.5 C35.56250000000001 19.5, 35.5625 19.5, 35.5625 19.5 M35.5625 19.5 C13.63400647207379 19.5, -8.294487055852422 19.5, -35.56249999999999 19.5 M35.5625 19.5 C10.583399776310415 19.5, -14.39570044737917 19.5, -35.56249999999999 19.5 M-35.56249999999999 19.5 C-36.05508433772627 19.484203779046368, -36.547668675452556 19.468407558092736, -36.81186928962389 19.45993515863156 M-35.56249999999999 19.5 C-35.887296345044824 19.489584413392148, -36.212092690089655 19.479168826784292, -36.81186928962389 19.45993515863156 M-36.81186928962389 19.45993515863156 C-37.08711275590118 19.43338275246849, -37.36235622217847 19.40683034630542, -38.05610465284787 19.3399052695533 M-36.81186928962389 19.45993515863156 C-37.06651856131448 19.435369449652125, -37.32116783300507 19.41080374067269, -38.05610465284787 19.3399052695533 M-38.05610465284787 19.3399052695533 C-38.43523203834248 19.278610894043318, -38.81435942383708 19.217316518533334, -39.29009325967676 19.140403561325773 M-38.05610465284787 19.3399052695533 C-38.47868451085086 19.271585835267118, -38.90126436885385 19.203266400980937, -39.29009325967676 19.140403561325773 M-39.29009325967676 19.140403561325773 C-39.7109495794339 19.04434585268535, -40.131805899191036 18.94828814404493, -40.508764386235384 18.862249829261074 M-39.29009325967676 19.140403561325773 C-39.60425692867679 19.068697753986047, -39.91842059767682 18.996991946646325, -40.508764386235384 18.862249829261074 M-40.508764386235384 18.862249829261074 C-40.888908278968565 18.74942511731388, -41.26905217170175 18.636600405366682, -41.70711025146059 18.506587066708043 M-40.508764386235384 18.862249829261074 C-40.874477540328286 18.75370808479382, -41.24019069442119 18.64516634032657, -41.70711025146059 18.506587066708043 M-41.70711025146059 18.506587066708043 C-42.13413651823758 18.34943745314657, -42.561162785014574 18.192287839585102, -42.8802065951478 18.074876768247425 M-41.70711025146059 18.506587066708043 C-41.97715675291611 18.407207457889918, -42.247203254371634 18.307827849071792, -42.8802065951478 18.074876768247425 M-42.8802065951478 18.074876768247425 C-43.19702621630394 17.934630120081746, -43.51384583746008 17.794383471916067, -44.02323291279238 17.568892924097174 M-42.8802065951478 18.074876768247425 C-43.10972843979166 17.9732742561472, -43.33925028443552 17.871671744046974, -44.02323291279238 17.568892924097174 M-44.02323291279238 17.568892924097174 C-44.43493548649137 17.354107955106496, -44.84663806019035 17.139322986115822, -45.13149226407678 16.990714730406097 M-44.02323291279238 17.568892924097174 C-44.41365593712207 17.365209482382255, -44.804078961451765 17.16152604066734, -45.13149226407678 16.990714730406097 M-45.13149226407678 16.990714730406097 C-45.477568070895366 16.780921542545485, -45.823643877713955 16.57112835468487, -46.200430573605686 16.3427180453909 M-45.13149226407678 16.990714730406097 C-45.46912444873876 16.78604011591705, -45.806756633400745 16.581365501428003, -46.200430573605686 16.3427180453909 M-46.200430573605686 16.3427180453909 C-46.51001415275407 16.126765942234137, -46.81959773190245 15.910813839077372, -47.22565534457871 15.627565626425156 M-46.200430573605686 16.3427180453909 C-46.57031221787941 16.084704622263864, -46.94019386215314 15.826691199136828, -47.22565534457871 15.627565626425156 M-47.22565534457871 15.627565626425156 C-47.441207552235454 15.455668476904052, -47.65675975989219 15.283771327382945, -48.202953708501866 14.848196188198125 M-47.22565534457871 15.627565626425156 C-47.57798829348316 15.346589475647395, -47.930321242387606 15.065613324869632, -48.202953708501866 14.848196188198125 M-48.202953708501866 14.848196188198125 C-48.45489906272065 14.619386083605404, -48.70684441693944 14.390575979012684, -49.128309736767974 14.007812326905697 M-48.202953708501866 14.848196188198125 C-48.47593981873236 14.600277425703474, -48.74892592896284 14.352358663208825, -49.128309736767974 14.007812326905697 M-49.128309736767974 14.007812326905697 C-49.47062734486561 13.654341291746587, -49.81294495296324 13.300870256587478, -49.997920942968655 13.109867360095677 M-49.128309736767974 14.007812326905697 C-49.40836385890301 13.71863345293024, -49.68841798103804 13.42945457895478, -49.997920942968655 13.109867360095677 M-49.997920942968655 13.109867360095677 C-50.20104328275036 12.871268301799526, -50.40416562253207 12.632669243503376, -50.808213908126575 12.158051136245307 M-49.997920942968655 13.109867360095677 C-50.22080006352599 12.848060862907795, -50.44367918408333 12.586254365719915, -50.808213908126575 12.158051136245307 M-50.808213908126575 12.158051136245307 C-50.95904999046744 11.955944527358335, -51.10988607280831 11.753837918471364, -51.555858964640635 11.156274872382316 M-50.808213908126575 12.158051136245307 C-51.0876942579021 11.783572928729756, -51.367174607677626 11.409094721214206, -51.555858964640635 11.156274872382316 M-51.555858964640635 11.156274872382316 C-51.724129960001775 10.897765436418565, -51.89240095536291 10.639256000454814, -52.23778387860425 10.108655082055249 M-51.555858964640635 11.156274872382316 C-51.739247500020596 10.874540835321756, -51.92263603540056 10.592806798261197, -52.23778387860425 10.108655082055249 M-52.23778387860425 10.108655082055249 C-52.44143379467528 9.747054034280982, -52.645083710746306 9.385452986506715, -52.851186474273504 9.019496659696289 M-52.23778387860425 10.108655082055249 C-52.41485161123155 9.794253392723276, -52.591919343858855 9.479851703391304, -52.851186474273504 9.019496659696289 M-52.851186474273504 9.019496659696289 C-53.004470912515956 8.70119824392426, -53.157755350758414 8.38289982815223, -53.39354614880834 7.893275190886686 M-52.851186474273504 9.019496659696289 C-53.06792714421479 8.569430021055783, -53.28466781415607 8.11936338241528, -53.39354614880834 7.893275190886686 M-53.39354614880834 7.893275190886686 C-53.49286359197206 7.647959186100165, -53.59218103513578 7.4026431813136435, -53.862634229970325 6.73461856121551 M-53.39354614880834 7.893275190886686 C-53.54045192236709 7.530415089966661, -53.68735769592584 7.167554989046636, -53.862634229970325 6.73461856121551 M-53.862634229970325 6.73461856121551 C-53.99181276680765 6.3455533900662715, -54.12099130364497 5.956488218917032, -54.25652313421488 5.5482879393051325 M-53.862634229970325 6.73461856121551 C-54.00319306423394 6.311277747422442, -54.14375189849755 5.887936933629374, -54.25652313421488 5.5482879393051325 M-54.25652313421488 5.5482879393051325 C-54.338280068371375 5.236513315687018, -54.42003700252787 4.924738692068904, -54.57359428754556 4.339158212148136 M-54.25652313421488 5.5482879393051325 C-54.382219910278316 5.0689516548479086, -54.50791668634175 4.589615370390684, -54.57359428754556 4.339158212148136 M-54.57359428754556 4.339158212148136 C-54.635915213165504 4.019153430622028, -54.69823613878544 3.6991486490959202, -54.812544776581774 3.112197953150904 M-54.57359428754556 4.339158212148136 C-54.640059218019914 3.9978748415303462, -54.706524148494275 3.6565914709125567, -54.812544776581774 3.112197953150904 M-54.812544776581774 3.112197953150904 C-54.86894863751725 2.674740745937549, -54.92535249845272 2.237283538724194, -54.97239270250937 1.872449005199809 M-54.812544776581774 3.112197953150904 C-54.86834529539471 2.6794201482965576, -54.92414581420765 2.2466423434422107, -54.97239270250937 1.872449005199809 M-54.97239270250937 1.872449005199809 C-54.99013637324616 1.5960770110410456, -55.00788004398295 1.319705016882282, -55.05248121591342 0.6250057626472781 M-54.97239270250937 1.872449005199809 C-54.99704351879819 1.488492643720624, -55.02169433508701 1.104536282241439, -55.05248121591342 0.6250057626472781 M-55.05248121591342 0.6250057626472781 C-55.05248121591342 0.36543740433218164, -55.05248121591342 0.10586904601708513, -55.05248121591342 -0.6250057626472687 M-55.05248121591342 0.6250057626472781 C-55.05248121591342 0.21510584426914914, -55.05248121591342 -0.19479407410897986, -55.05248121591342 -0.6250057626472687 M-55.05248121591342 -0.6250057626472687 C-55.03210409602086 -0.9423958530890355, -55.011726976128294 -1.2597859435308023, -54.97239270250937 -1.8724490051997822 M-55.05248121591342 -0.6250057626472687 C-55.0216653416319 -1.1049878787078624, -54.99084946735039 -1.5849699947684561, -54.97239270250937 -1.8724490051997822 M-54.97239270250937 -1.8724490051997822 C-54.91913140804174 -2.285533087458466, -54.86587011357412 -2.6986171697171497, -54.812544776581774 -3.112197953150895 M-54.97239270250937 -1.8724490051997822 C-54.922988313656006 -2.2556196891464086, -54.87358392480264 -2.638790373093035, -54.812544776581774 -3.112197953150895 M-54.812544776581774 -3.112197953150895 C-54.7458622012813 -3.454598883951565, -54.67917962598082 -3.7969998147522346, -54.57359428754556 -4.339158212148126 M-54.812544776581774 -3.112197953150895 C-54.756644206511574 -3.399235565871721, -54.700743636441366 -3.6862731785925464, -54.57359428754556 -4.339158212148126 M-54.57359428754556 -4.339158212148126 C-54.50358127433765 -4.606148175341771, -54.433568261129736 -4.873138138535415, -54.25652313421489 -5.548287939305123 M-54.57359428754556 -4.339158212148126 C-54.486869464456646 -4.669877549362238, -54.40014464136774 -5.00059688657635, -54.25652313421489 -5.548287939305123 M-54.25652313421489 -5.548287939305123 C-54.10273473437018 -6.011474096783422, -53.948946334525466 -6.474660254261722, -53.86263422997033 -6.734618561215485 M-54.25652313421489 -5.548287939305123 C-54.16569027368604 -5.821862042967055, -54.07485741315719 -6.0954361466289875, -53.86263422997033 -6.734618561215485 M-53.86263422997033 -6.734618561215485 C-53.75660584408197 -6.9965107242791404, -53.650577458193595 -7.258402887342796, -53.39354614880834 -7.893275190886676 M-53.86263422997033 -6.734618561215485 C-53.75386214466014 -7.003287714896862, -53.64509005934995 -7.27195686857824, -53.39354614880834 -7.893275190886676 M-53.39354614880834 -7.893275190886676 C-53.192396376612194 -8.310966996767622, -52.991246604416055 -8.728658802648567, -52.851186474273504 -9.019496659696282 M-53.39354614880834 -7.893275190886676 C-53.27366427937096 -8.142212457834482, -53.153782409933584 -8.391149724782288, -52.851186474273504 -9.019496659696282 M-52.851186474273504 -9.019496659696282 C-52.709959718362015 -9.270259065576894, -52.56873296245052 -9.521021471457507, -52.23778387860425 -10.108655082055243 M-52.851186474273504 -9.019496659696282 C-52.71613701503245 -9.259290649819416, -52.58108755579139 -9.49908463994255, -52.23778387860425 -10.108655082055243 M-52.23778387860425 -10.108655082055243 C-52.08501251109406 -10.3433529274071, -51.93224114358386 -10.578050772758957, -51.55585896464064 -11.156274872382308 M-52.23778387860425 -10.108655082055243 C-52.0528769894465 -10.392721718253561, -51.86797010028875 -10.676788354451881, -51.55585896464064 -11.156274872382308 M-51.55585896464064 -11.156274872382308 C-51.35730970255045 -11.42231279537328, -51.158760440460256 -11.688350718364251, -50.80821390812659 -12.158051136245302 M-51.55585896464064 -11.156274872382308 C-51.294834973373064 -11.506023240906064, -51.033810982105486 -11.85577160942982, -50.80821390812659 -12.158051136245302 M-50.80821390812659 -12.158051136245302 C-50.64588938366069 -12.348726759210049, -50.483564859194786 -12.539402382174796, -49.99792094296866 -13.10986736009567 M-50.80821390812659 -12.158051136245302 C-50.56492579920468 -12.443831192470542, -50.32163769028277 -12.729611248695784, -49.99792094296866 -13.10986736009567 M-49.99792094296866 -13.10986736009567 C-49.71152907864333 -13.405590473220922, -49.425137214318 -13.701313586346172, -49.128309736767996 -14.007812326905677 M-49.99792094296866 -13.10986736009567 C-49.74083640639174 -13.375328251144332, -49.48375186981482 -13.640789142192991, -49.128309736767996 -14.007812326905677 M-49.128309736767996 -14.007812326905677 C-48.85168614132071 -14.259034557231637, -48.57506254587343 -14.510256787557596, -48.20295370850189 -14.848196188198107 M-49.128309736767996 -14.007812326905677 C-48.88297026231792 -14.230623146274457, -48.63763078786784 -14.453433965643235, -48.20295370850189 -14.848196188198107 M-48.20295370850189 -14.848196188198107 C-47.96470517183201 -15.038193056132508, -47.72645663516214 -15.228189924066909, -47.22565534457872 -15.627565626425149 M-48.20295370850189 -14.848196188198107 C-47.87774085588483 -15.107544783882748, -47.55252800326777 -15.36689337956739, -47.22565534457872 -15.627565626425149 M-47.22565534457872 -15.627565626425149 C-46.832477715868684 -15.901829319828046, -46.43930008715864 -16.176093013230943, -46.200430573605715 -16.342718045390885 M-47.22565534457872 -15.627565626425149 C-46.98022063028591 -15.798770258418271, -46.7347859159931 -15.969974890411395, -46.200430573605715 -16.342718045390885 M-46.200430573605715 -16.342718045390885 C-45.80903436257905 -16.579984728614694, -45.41763815155238 -16.8172514118385, -45.13149226407679 -16.99071473040609 M-46.200430573605715 -16.342718045390885 C-45.945948769202175 -16.496986410721387, -45.69146696479864 -16.651254776051893, -45.13149226407679 -16.99071473040609 M-45.13149226407679 -16.99071473040609 C-44.90007640732605 -17.111444234644022, -44.668660550575304 -17.232173738881954, -44.02323291279239 -17.56889292409717 M-45.13149226407679 -16.99071473040609 C-44.819134004489456 -17.15367183435779, -44.506775744902114 -17.31662893830949, -44.02323291279239 -17.56889292409717 M-44.02323291279239 -17.56889292409717 C-43.762054939725324 -17.68450866520466, -43.500876966658254 -17.80012440631215, -42.880206595147804 -18.07487676824742 M-44.02323291279239 -17.56889292409717 C-43.652398774116556 -17.73305019688508, -43.28156463544072 -17.897207469672992, -42.880206595147804 -18.07487676824742 M-42.880206595147804 -18.07487676824742 C-42.413917902627986 -18.24647531742014, -41.94762921010816 -18.418073866592856, -41.70711025146062 -18.506587066708033 M-42.880206595147804 -18.07487676824742 C-42.62521798174733 -18.168714935067698, -42.37022936834686 -18.262553101887974, -41.70711025146062 -18.506587066708033 M-41.70711025146062 -18.506587066708033 C-41.301262745121 -18.6270404762526, -40.89541523878138 -18.747493885797166, -40.50876438623541 -18.862249829261067 M-41.70711025146062 -18.506587066708033 C-41.37904359585245 -18.60395552803552, -41.05097694024428 -18.70132398936301, -40.50876438623541 -18.862249829261067 M-40.50876438623541 -18.862249829261067 C-40.06167503406516 -18.964295056363248, -39.614585681894916 -19.066340283465426, -39.290093259676766 -19.140403561325773 M-40.50876438623541 -18.862249829261067 C-40.05579316187292 -18.965637555308323, -39.602821937510434 -19.06902528135558, -39.290093259676766 -19.140403561325773 M-39.290093259676766 -19.140403561325773 C-38.86209795569092 -19.209598522921052, -38.43410265170507 -19.278793484516328, -38.05610465284788 -19.3399052695533 M-39.290093259676766 -19.140403561325773 C-38.99396332946234 -19.188279551920935, -38.69783339924791 -19.236155542516094, -38.05610465284788 -19.3399052695533 M-38.05610465284788 -19.3399052695533 C-37.770689160053195 -19.36743895888085, -37.48527366725851 -19.3949726482084, -36.8118692896239 -19.45993515863156 M-38.05610465284788 -19.3399052695533 C-37.72155024873394 -19.372179330557632, -37.38699584462 -19.404453391561965, -36.8118692896239 -19.45993515863156 M-36.8118692896239 -19.45993515863156 C-36.44308731373889 -19.47176127880762, -36.07430533785389 -19.483587398983683, -35.56250000000001 -19.5 M-36.8118692896239 -19.45993515863156 C-36.37748708491069 -19.473864950463042, -35.94310488019749 -19.487794742294525, -35.56250000000001 -19.5 M-35.56250000000001 -19.5 C-35.56250000000001 -19.5, -35.5625 -19.5, -35.5625 -19.5 M-35.56250000000001 -19.5 C-35.56250000000001 -19.5, -35.5625 -19.5, -35.5625 -19.5" stroke="#9370DB" stroke-width="1.3" fill="none" stroke-dasharray="0 0" style=""/></g><g class="label" style="" transform="translate(-42.6875, -12)"><rect/><foreignObject width="85.375" height="24"><div xmlns="http://www.w3.org/1999/xhtml" style="display: table-cell; white-space: nowrap; line-height: 1.5; max-width: 200px; text-align: center;"><span class="nodeLabel"><p>return suma</p></span></div></foreignObject></g></g></g></g></g><defs><filter id="my-svg-drop-shadow" height="130%" width="130%"><feDropShadow dx="4" dy="4" stdDeviation="0" flood-opacity="0.06" flood-color="#000000"/></filter></defs><defs><filter id="my-svg-drop-shadow-small" height="150%" width="150%"><feDropShadow dx="2" dy="2" stdDeviation="0" flood-opacity="0.06" flood-color="#000000"/></filter></defs></svg>